# xmcd CD database file
#
# Track frame offsets:
#	150
#	23522
#	42050
#	62952
#	80050
#	106122
#	121207
#	138292
#	158720
#	179532
#	199415
#	218242
#	237202
#
# Disc length: 3394 seconds
#
# Revision: 0
# Processed by: cddbd v1.5PL3 Copyright (c) Steve Scherf et al.
# Submitted via: CDex 1.51
#
DISCID=ae0d400d
DTITLE=Heaven And Earth - Windows To The World
DYEAR=1900
DGENRE=Hard Rock
TTITLE0=Dogs Of War
TTITLE1=Worlds Apart
TTITLE2=If Only Love
TTITLE3=Jade
TTITLE4=Broken Arrow
TTITLE5=Prisoner
TTITLE6=Away From Harm
TTITLE7=Through Your Eyes
TTITLE8=Windows To The World
TTITLE9=Politician
TTITLE10=Years Gone By
TTITLE11=I Don't Need No Doctor
TTITLE12=Secret Track
EXTD=
EXTT0=
EXTT1=
EXTT2=
EXTT3=
EXTT4=
EXTT5=
EXTT6=
EXTT7=
EXTT8=
EXTT9=
EXTT10=
EXTT11=
EXTT12=
PLAYORDER=
